<!-- Generated by IcoMoon.io -->
<svg version="1.1" xmlns="http://www.w3.org/2000/svg" width="32" height="32" viewBox="0 0 32 32">
<path d="M2 7c0.006 0.828 0.22 1.614 0.588 2.297-0.406 0.629-0.771 1.292-1.088 1.977-0.927-1.186-1.5-2.658-1.5-4.274 0.005-3.861 3.139-6.995 7-7 2.116 0 3.993 0.964 5.278 2.45-0.733 0.174-1.463 0.403-2.153 0.675-0.85-0.698-1.941-1.121-3.125-1.125-2.758 0.003-4.997 2.242-5 5zM25 0c3.861 0.005 6.995 3.139 7 7 0 1.616-0.576 3.087-1.5 4.274-0.316-0.684-0.68-1.346-1.085-1.974 0.366-0.684 0.579-1.469 0.585-2.297-0.003-2.758-2.242-4.997-5-5-1.184 0.004-2.275 0.427-3.125 1.125-0.689-0.272-1.42-0.501-2.153-0.675 1.284-1.489 3.161-2.453 5.278-2.453zM16 4c7.732 0 14 6.268 14 14 0 0.002-0.003 0.011-0.003 0.012 0 3.499-1.293 6.699-3.427 9.146l3.281 3.281c0.091 0.090 0.147 0.216 0.147 0.354s-0.056 0.263-0.147 0.354l-0.707 0.707c-0.090 0.091-0.216 0.147-0.354 0.147s-0.263-0.056-0.354-0.147l-3.279-3.283c-2.45 2.133-5.665 3.425-9.166 3.425s-6.701-1.292-9.152-3.425l-3.281 3.281c-0.091 0.091-0.216 0.147-0.354 0.147s-0.263-0.056-0.354-0.147l-0.707-0.707c-0.091-0.090-0.147-0.216-0.147-0.354s0.056-0.263 0.147-0.354l3.281-3.279c-2.133-2.448-3.428-5.653-3.428-9.151v-0.008c0-7.732 6.268-14 14-14zM16 30c6.617 0 12-5.383 12-12s-5.383-12-12-12-12 5.383-12 12 5.383 12 12 12zM16.899 18.519l4.234 3.386c0.115 0.092 0.188 0.233 0.188 0.391 0 0.118-0.041 0.227-0.11 0.312l-0.625 0.781c-0.092 0.115-0.233 0.188-0.391 0.188-0.118 0-0.227-0.041-0.312-0.11l-4.609-3.688c-0.229-0.183-0.375-0.464-0.375-0.78v-8.5c0-0.276 0.224-0.5 0.5-0.5h1c0.276 0 0.5 0.224 0.5 0.5v8.019z"></path>
</svg>
