<!-- Generated by IcoMoon.io -->
<svg version="1.1" xmlns="http://www.w3.org/2000/svg" width="40" height="32" viewBox="0 0 40 32">
<path d="M30 16c-3.313 0-6-2.688-6-6s2.688-6 6-6 6 2.688 6 6-2.688 6-6 6zM30 6c-2.206 0-4 1.794-4 4s1.794 4 4 4 4-1.794 4-4-1.794-4-4-4zM12 16c-3.869 0-7-3.131-7-7s3.131-7 7-7 7 3.131 7 7-3.131 7-7 7zM12 4c-2.756 0-5 2.244-5 5s2.244 5 5 5 5-2.244 5-5-2.244-5-5-5zM17.006 17.25c2.269 0 4.475 1.012 5.769 2.931 0.775 1.15 1.225 2.531 1.225 4.019v2.8c0 1.656-1.344 3-3 3h-18c-1.656 0-3-1.344-3-3v-2.8c0-1.488 0.45-2.869 1.225-4.019 1.294-1.919 3.5-2.931 5.769-2.931 2.087 0 2.606 0.75 5.006 0.75s2.919-0.75 5.006-0.75zM22 27h-0.006v-2.8c0-1.038-0.306-2.044-0.881-2.9-0.863-1.281-2.4-2.050-4.106-2.050s-2.319 0.75-5.006 0.75-3.3-0.75-5.013-0.75c-1.706 0-3.244 0.769-4.106 2.050-0.575 0.856-0.881 1.863-0.881 2.9v2.8c0 0.55 0.45 1 1 1h18c0.55 0 1-0.45 1-1zM38.981 19.819c0.644 0.956 1.019 2.106 1.019 3.35v2.331c0 1.381-1.119 2.5-2.5 2.5h-11.6c0.119-0.594 0.1-0.894 0.1-2h11.506c0.275 0 0.5-0.225 0.5-0.5v-2.325c0-0.8-0.237-1.575-0.681-2.231-0.663-0.981-1.838-1.563-3.15-1.563-1.362 0-1.875 0.625-4.175 0.625s-2.813-0.625-4.175-0.625c-0.394 0-0.762 0.063-1.119 0.163-0.106-0.188-0.313-0.7-1.262-1.663 0.75-0.319 1.556-0.506 2.381-0.506 1.738 0 2.175 0.625 4.175 0.625s2.437-0.625 4.175-0.625c1.888 0 3.725 0.844 4.806 2.444z"></path>
</svg>
