<!-- Generated by IcoMoon.io -->
<svg version="1.1" xmlns="http://www.w3.org/2000/svg" width="32" height="32" viewBox="0 0 32 32">
<path d="M18.822 24.669l-4.95 4.949c-3.174 3.175-8.315 3.177-11.49 0-3.175-3.174-3.176-8.315 0-11.49l4.949-4.95c0.073-0.073 0.145-0.143 0.221-0.213 0.472-0.438 1.237-0.125 1.263 0.518 0.012 0.3 0.037 0.6 0.076 0.899 0.030 0.232-0.047 0.465-0.212 0.631-1.030 1.029-4.696 4.696-4.706 4.705-2.296 2.297-2.296 6.012 0 8.309 2.298 2.296 6.012 2.296 8.309 0l4.972-4.973c2.269-2.292 2.259-6.004-0.023-8.286-0.513-0.513-1.099-0.911-1.724-1.194-0.285-0.129-0.464-0.417-0.446-0.729 0.019-0.329 0.080-0.651 0.177-0.954 0.131-0.413 0.596-0.623 0.995-0.455 0.942 0.395 1.824 0.976 2.59 1.742 3.168 3.168 3.167 8.323 0 11.491zM13.178 18.822c-3.168-3.168-3.167-8.323 0-11.491l4.95-4.949c3.174-3.175 8.315-3.176 11.49 0 3.175 3.174 3.176 8.315 0 11.49l-4.949 4.95c-0.073 0.073-0.145 0.143-0.221 0.213-0.472 0.438-1.237 0.125-1.263-0.518-0.012-0.305-0.038-0.602-0.076-0.899-0.030-0.232 0.047-0.465 0.212-0.631 1.030-1.029 4.696-4.696 4.706-4.705 2.296-2.297 2.296-6.012 0-8.309-2.297-2.296-6.012-2.296-8.309 0l-4.972 4.973c-2.269 2.292-2.259 6.004 0.023 8.286 0.513 0.513 1.098 0.911 1.724 1.194 0.285 0.129 0.464 0.417 0.446 0.729-0.019 0.329-0.080 0.651-0.177 0.954-0.131 0.412-0.596 0.622-0.995 0.455-0.942-0.395-1.824-0.976-2.59-1.742z"></path>
</svg>
