<!-- Generated by IcoMoon.io -->
<svg version="1.1" xmlns="http://www.w3.org/2000/svg" width="40" height="32" viewBox="0 0 40 32">
<path d="M39.269 22.394c0.588 0.338 0.869 1.056 0.663 1.706-0.456 1.456-1.25 2.831-2.294 3.963-0.463 0.5-1.206 0.613-1.794 0.275l-1.031-0.594c-0.438 0.313-0.9 0.581-1.388 0.8v1.188c0 0.681-0.469 1.269-1.138 1.419-0.744 0.169-1.519 0.25-2.287 0.25s-1.537-0.081-2.287-0.25c-0.669-0.15-1.137-0.731-1.137-1.419v-1.188c-0.488-0.219-0.95-0.488-1.387-0.8l-1.031 0.594c-0.594 0.337-1.331 0.225-1.794-0.275-1.050-1.131-1.844-2.506-2.294-3.969-0.206-0.637 0.075-1.356 0.656-1.694l1.038-0.594c-0.050-0.531-0.050-1.069 0-1.6l-1.031-0.594c-0.588-0.337-0.869-1.050-0.663-1.7 0.456-1.456 1.25-2.831 2.294-3.962 0.463-0.506 1.2-0.619 1.794-0.275l1.031 0.594c0.438-0.313 0.9-0.581 1.387-0.8v-1.188c0-0.681 0.469-1.269 1.137-1.419 1.494-0.337 3.081-0.337 4.575 0 0.669 0.15 1.138 0.731 1.138 1.419v1.188c0.487 0.219 0.95 0.488 1.388 0.8l1.031-0.594c0.588-0.344 1.331-0.231 1.794 0.275 1.050 1.131 1.844 2.506 2.294 3.969 0.206 0.644-0.063 1.344-0.656 1.688l-1.038 0.594c0.050 0.531 0.050 1.069 0 1.6zM36.044 22.844c0.325-1.775 0.306-2.012 0-3.688l1.837-1.063c-0.325-0.894-0.813-1.731-1.425-2.469l-1.837 1.063c-1.306-1.119-1.519-1.25-3.194-1.844v-2.125c-0.931-0.156-1.906-0.156-2.85 0v2.125c-1.663 0.588-1.856 0.7-3.194 1.844l-1.837-1.063c-0.613 0.738-1.1 1.575-1.425 2.469l1.837 1.063c-0.325 1.775-0.306 2.012 0 3.688l-1.837 1.063c0.325 0.894 0.813 1.731 1.425 2.469l1.837-1.063c1.306 1.113 1.512 1.25 3.194 1.844v2.125c0.938 0.162 1.906 0.162 2.85 0v-2.125c1.663-0.588 1.856-0.7 3.194-1.844l1.837 1.063c0.612-0.731 1.1-1.575 1.425-2.469zM30 16.969c2.225 0 4.031 1.813 4.031 4.031s-1.806 4.031-4.031 4.031-4.031-1.813-4.031-4.031 1.806-4.031 4.031-4.031zM30 23.031c1.119 0 2.031-0.912 2.031-2.031s-0.912-2.031-2.031-2.031-2.031 0.912-2.031 2.031 0.912 2.031 2.031 2.031zM14 16c-4.419 0-8-3.581-8-8s3.581-8 8-8 8 3.581 8 8-3.581 8-8 8zM14 2c-3.306 0-6 2.694-6 6s2.694 6 6 6 6-2.694 6-6-2.694-6-6-6zM3 30h18.344c0.806 0.781 1.719 1.463 2.719 2h-21.063c-1.656 0-3-1.344-3-3v-2.6c0-4.637 3.763-8.4 8.4-8.4 1.8 0 2.656 1 5.6 1 1.912 0 3.238-0.5 3.794-0.669-0.15 0.688-0.231 1.4-0.262 2.125-1.156 0.338-2.331 0.544-3.531 0.544-3.156 0-4.375-1-5.6-1-3.531 0-6.4 2.869-6.4 6.4v2.6c0 0.55 0.45 1 1 1z"></path>
</svg>
