<svg width="1170" height="1024" xmlns="http://www.w3.org/2000/svg" p-id="1162" version="1.1" class="icon" t="1769933518623">

 <g>
  <title>Layer 1</title>
  <path stroke="null" id="svg_1" p-id="1163" d="m979.99999,3.12498l-812.46426,0c-74.47589,0 -135.4107,65.29822 -135.4107,145.10715l0,580.42862c0,79.80893 60.93482,145.10716 135.4107,145.10716l372.37946,0l0,72.55357l-270.82142,0c-20.31161,0 -33.85268,14.51071 -33.85268,36.27679s13.54107,36.27679 33.85268,36.27679l609.34819,0c20.31161,0 33.85268,-14.51071 33.85268,-36.27679s-13.54107,-36.27679 -33.85268,-36.27679l-270.82141,0l0,-72.55357l372.37945,0c74.47589,0 135.4107,-65.29823 135.4107,-145.10716l0,-580.42862c0,-79.80893 -60.93482,-145.10715 -135.4107,-145.10715zm67.70536,725.53577c0,43.53215 -27.08215,72.55358 -67.70536,72.55358l-812.46426,0c-40.62321,0 -67.70535,-29.02143 -67.70535,-72.55358l0,-580.42862c0,-43.53214 27.08214,-72.55357 67.70535,-72.55357l812.46426,0c40.62321,0 67.70536,29.02143 67.70536,72.55357l0,580.42862z"/>
  <path id="svg_2" p-id="1164" d="m879.63393,367.35714l-96.42857,96.42857l-156.69643,-210.9375c-6.02679,-6.02678 -18.08036,-12.05357 -30.13393,-12.05357c-6.02679,0 -18.08036,6.02679 -24.10714,18.08036l-96.42857,247.09821l-90.40179,-132.58928c-6.02679,-6.02679 -12.05357,-12.05357 -24.10714,-12.05357s-18.08036,0 -24.10715,6.02678l-120.53571,120.53572c-6.02679,12.05357 -6.02679,36.16071 0,48.21428c6.02679,12.05357 30.13393,12.05357 42.1875,0l96.42857,-96.42857l102.45536,150.66964c6.02678,6.02679 12.05357,12.05358 24.10714,12.05358l6.02679,0c12.05357,0 18.08035,-6.02679 24.10714,-18.08036l96.42857,-253.125l150.66964,198.88393c6.02679,6.02678 12.05358,12.05357 24.10715,12.05357c6.02678,0 18.08035,0 24.10714,-6.02679l120.53571,-120.53571c12.05358,-12.05357 12.05358,-30.13393 0,-42.1875c-12.05357,-12.05357 -36.16071,-12.05357 -48.21428,-6.02679z"/>
 </g>
</svg>