<?xml version="1.0" standalone="no"?><!DOCTYPE svg PUBLIC "-//W3C//DTD SVG 1.1//EN" "http://www.w3.org/Graphics/SVG/1.1/DTD/svg11.dtd"><svg t="1772036611953" class="icon" viewBox="0 0 1024 1024" version="1.1" xmlns="http://www.w3.org/2000/svg" p-id="75646" xmlns:xlink="http://www.w3.org/1999/xlink" width="200" height="200"><path d="M344.941714 946.468571c12.434286 4.900571 18.870857 3.072 19.894857 2.486858L365.714286 636.708571c0-20.406857-21.942857-52.516571-51.2-65.097142L91.794286 444.928c-9.728-3.949714-16.749714-2.048-17.92-1.389714l-0.731429 312.32c0 20.333714 21.796571 52.516571 51.2 65.097143l220.525714 125.513142z m14.994286 76.507429c-14.555429 0-29.988571-3.364571-45.494857-9.947429l-3.657143-1.828571-218.916571-124.854857C41.033143 864.841143 0 807.936 0 755.858286V449.097143c0-28.16 12.288-52.443429 33.718857-66.56 24.429714-16.091429 57.490286-17.042286 90.697143-2.925714L346.843429 506.148571C397.750857 527.652571 438.857143 584.630857 438.857143 636.708571V943.542857c0 28.16-12.288 52.443429-33.645714 66.56-13.092571 8.557714-28.525714 12.946286-45.275429 12.946286zM857.746286 446.171429l-216.941715 123.611428c-32.914286 14.482286-54.857143 46.665143-54.857142 66.998857V943.542857c1.828571 6.217143 8.923429 8.045714 22.381714 2.194286l215.186286-122.953143c33.060571-14.336 54.930286-46.518857 54.930285-66.925714V449.097143c-1.828571-5.997714-8.338286-7.899429-20.699428-2.998857z m-267.117715 576.658285c-16.603429 0-31.451429-4.388571-44.178285-12.653714-21.430857-14.116571-33.645714-38.4-33.645715-66.56V636.708571c0-52.077714 41.033143-108.982857 95.524572-132.388571L827.245714 379.611429c33.133714-14.116571 66.194286-13.165714 90.697143 2.925714 21.357714 14.189714 33.645714 38.473143 33.645714 66.56v306.834286c0 52.150857-40.96 108.982857-95.524571 132.388571l-215.259429 123.026286a127.414857 127.414857 0 0 1-50.176 11.483428zM147.017143 243.346286c1.243429 0.512 3.657143 2.925714 8.704 5.705143L425.984 401.554286c25.819429 14.628571 72.996571 14.628571 98.889143 0l270.409143-152.502857a31.817143 31.817143 0 0 0 8.630857-6.582858c-1.170286-0.512-3.730286-2.925714-8.630857-5.705142L524.873143 84.260571c-25.892571-14.555429-73.142857-14.555429-98.889143 0L155.648 236.763429a32.621714 32.621714 0 0 0-8.777143 6.582857z m328.411428 242.468571c-30.427429 0-60.928-6.802286-85.284571-20.48L119.661714 312.685714C90.112 296.228571 73.142857 270.628571 73.142857 242.907429s16.969143-53.174857 46.518857-69.851429L390.070857 20.553143c48.713143-27.428571 122.075429-27.428571 170.715429 0l270.409143 152.502857c29.549714 16.822857 46.518857 42.130286 46.518857 69.851429 0 27.794286-16.969143 53.174857-46.518857 69.851428L560.786286 465.261714c-24.283429 13.750857-54.857143 20.553143-85.357715 20.553143z" fill="#000000" opacity=".7" p-id="75647" data-spm-anchor-id="a313x.search_index.0.i8.51a33a81IXRcsw" class="selected"></path></svg>