<!-- Generated by IcoMoon.io -->
<svg version="1.1" xmlns="http://www.w3.org/2000/svg" width="32" height="32" viewBox="0 0 32 32">
<path d="M29 4h-26c-0.551 0-1 0.449-1 1v22c0 0.551 0.449 1 1 1h26c0.551 0 1-0.449 1-1v-22c0-0.551-0.449-1-1-1zM29 2c1.657 0 3 1.343 3 3v22c0 1.657-1.343 3-3 3h-26c-1.657 0-3-1.343-3-3v-22c0-1.657 1.343-3 3-3h26zM8 8c1.105 0 2 0.895 2 2s-0.895 2-2 2-2-0.895-2-2 0.895-2 2-2zM8 14c1.105 0 2 0.895 2 2s-0.895 2-2 2-2-0.895-2-2 0.895-2 2-2zM8 20c1.105 0 2 0.895 2 2s-0.895 2-2 2-2-0.895-2-2 0.895-2 2-2zM26 10.75c0 0.207-0.168 0.375-0.375 0.375h-13.25c-0.207 0-0.375-0.168-0.375-0.375v-1.5c0-0.207 0.168-0.375 0.375-0.375h13.25c0.207 0 0.375 0.168 0.375 0.375v1.5zM26 16.75c0 0.207-0.168 0.375-0.375 0.375h-13.25c-0.207 0-0.375-0.168-0.375-0.375v-1.5c0-0.207 0.168-0.375 0.375-0.375h13.25c0.207 0 0.375 0.168 0.375 0.375v1.5zM26 22.75c0 0.207-0.168 0.375-0.375 0.375h-13.25c-0.207 0-0.375-0.168-0.375-0.375v-1.5c0-0.207 0.168-0.375 0.375-0.375h13.25c0.207 0 0.375 0.168 0.375 0.375v1.5z"></path>
</svg>
