<!-- Generated by IcoMoon.io -->
<svg version="1.1" xmlns="http://www.w3.org/2000/svg" width="28" height="32" viewBox="0 0 28 32">
<path d="M23.5 20c0.276 0 0.5 0.224 0.5 0.5v1c0 0.276-0.224 0.5-0.5 0.5h-9c-0.276 0-0.5-0.224-0.5-0.5v-1c0-0.276 0.224-0.5 0.5-0.5h9zM26 0c1.104 0 2 0.896 2 2v25c0 0.552-0.448 1-1 1h-1v3c0 0.552-0.448 1-1 1h-22c-0.552 0-1-0.448-1-1v-3h-1c-0.552 0-1-0.448-1-1v-25c0-1.104 0.896-2 2-2h24zM24 30v-2h-20v2h20zM26 26v-24h-24v24h24zM6 16c-1.104 0-2-0.896-2-2v-8c0-1.104 0.896-2 2-2h16c1.104 0 2 0.896 2 2v8c0 1.104-0.896 2-2 2h-16zM6 6v8h16v-8h-16zM5 22.25c-0.69 0-1.25-0.56-1.25-1.25s0.56-1.25 1.25-1.25 1.25 0.56 1.25 1.25-0.56 1.25-1.25 1.25z"></path>
</svg>
