<!-- Generated by IcoMoon.io -->
<svg version="1.1" xmlns="http://www.w3.org/2000/svg" width="32" height="32" viewBox="0 0 32 32">
<path d="M16.126 30.608l-0.267-0.961c-1.362 0.053-4.567-1.789-7.104-3.899-2.59-1.976-4.54-4.673-4.487-4.78v0-0.828c0-2.911-0.187-11.296-0.187-12.365h-0.961l0.881 0.401-0.107-0.053 0.107 0.107 0.027-0.053-0.134-0.053 0.107 0.107c1.015-1.122 10.415-5.742 11.483-5.581 1.122-0.187 11.777 4.941 11.777 5.395l0.801-0.561h-0.961c0 1.522 0.16 12.018 0.16 13.166h0.961l-0.855-0.427c-0.347 1.095-8.626 9.694-11.483 9.4h-0.027l-0.267 0.961 0.267 0.961h0.053c4.887-0.32 12.044-8.573 13.193-10.442l0.107-0.427c0-1.202-0.16-11.697-0.16-13.166l-0.187-0.561c-1.522-1.682-10.656-5.929-13.299-6.222h-0.053c-2.831 0.347-11.857 4.727-13.246 6.623l-0.080 0.427c0 1.122 0.187 9.48 0.187 12.365v0.828c0.561 3.178 8.733 10.121 13.486 10.602v-0.961h0.267zM8.541 15.519c0.187 0.027 2.938 3.231 5.181 3.498 2.297-0.294 8.733-5.955 8.973-6.009 0.401-0.347 0.481-0.935 0.134-1.362-0.347-0.401-0.935-0.481-1.362-0.134 0 0.080-7.531 5.822-7.745 5.555-0.24 0.24-3.792-2.938-3.819-2.938-0.374-0.374-0.988-0.374-1.362 0-0.374 0.427-0.374 1.015 0 1.389z"></path>
</svg>
