<?xml version="1.0" standalone="no"?><!DOCTYPE svg PUBLIC "-//W3C//DTD SVG 1.1//EN" "http://www.w3.org/Graphics/SVG/1.1/DTD/svg11.dtd"><svg t="1769933518623" class="icon" viewBox="0 0 1170 1024" version="1.1" xmlns="http://www.w3.org/2000/svg" p-id="1162" xmlns:xlink="http://www.w3.org/1999/xlink" width="228.515625" height="200"><path d="M933.875 90.125H210.66071405C144.36607107 90.125 90.125 144.36607107 90.125 210.66071405v482.14285703c0 66.29464298 54.24107108 120.53571405 120.53571405 120.53571487h331.47321487v60.26785702h-241.07142892c-18.08035703 0-30.13392892 12.05357108-30.13392893 30.1339281s12.05357108 30.13392892 30.13392893 30.13392893h542.41071405c18.08035703 0 30.13392892-12.05357108 30.13392892-30.13392893s-12.05357108-30.13392892-30.13392892-30.1339281h-241.0714281v-60.26785702H933.875c66.29464298 0 120.53571405-54.24107108 120.53571405-120.53571488V210.66071405c0-66.29464298-54.24107108-120.53571405-120.53571405-120.53571405z m60.26785702 602.67857108c0 36.16071405-24.10714297 60.26785702-60.26785702 60.26785785H210.66071405c-36.16071405 0-60.26785702-24.10714297-60.26785702-60.26785785V210.66071405c0-36.16071405 24.10714297-60.26785702 60.26785703-60.26785702h723.21428594c36.16071405 0 60.26785702 24.10714297 60.26785703 60.26785703v482.14285702z" p-id="1163"></path><path d="M879.63392893 367.35714297l-96.4285719 96.42857108-156.6964281-210.93749999c-6.02678595-6.02678595-18.08035703-12.05357108-30.13392893-12.05357109-6.02678595 0-18.08035703 6.02678595-24.10714298 18.08035703L475.83928595 505.97321405 385.4375 373.38392893c-6.02678595-6.02678595-12.05357108-12.05357108-24.10714297-12.0535719s-18.08035703 0-24.10714298 6.02678595l-120.53571405 120.53571405c-6.02678595 12.05357108-6.02678595 36.16071405 0 48.21428595 6.02678595 12.05357108 30.13392892 12.05357108 42.1875 0l96.42857107-96.4285719 102.45535785 150.66964298c6.02678595 6.02678595 12.05357108 12.05357108 24.10714215 12.05357189h6.02678595c12.05357108 0 18.08035703-6.02678595 24.10714298-18.08035702L608.42857107 331.19642893l150.66964298 198.8839281c6.02678595 6.02678595 12.05357108 12.05357108 24.10714297 12.0535719 6.02678595 0 18.08035703 0 24.10714298-6.02678595l120.53571405-120.53571405c12.05357108-12.05357108 12.05357108-30.13392892 0-42.1875-12.05357108-12.05357108-36.16071405-12.05357108-48.21428513-6.02678595z" p-id="1164"></path></svg>