<!-- Generated by IcoMoon.io -->
<svg version="1.1" xmlns="http://www.w3.org/2000/svg" width="32" height="32" viewBox="0 0 32 32">
<path d="M30.169 18.705c0.599 0.346 0.887 1.056 0.69 1.719-0.701 2.359-1.948 4.483-3.596 6.225-0.477 0.504-1.239 0.615-1.84 0.268l-2.035-1.175c-0.808 0.615-1.697 1.131-2.646 1.53v2.351c0 0.696-0.478 1.3-1.155 1.46-2.353 0.557-4.82 0.557-7.173 0-0.677-0.16-1.155-0.765-1.155-1.46v-2.351c-0.949-0.399-1.838-0.915-2.646-1.53l-2.035 1.175c-0.601 0.347-1.363 0.237-1.84-0.268-1.648-1.742-2.895-3.865-3.596-6.225-0.197-0.662 0.092-1.373 0.69-1.719l2.038-1.177c-0.064-0.505-0.097-0.994-0.097-1.515s0.033-1.036 0.097-1.541l-2.038-1.177c-0.599-0.346-0.887-1.056-0.69-1.719 0.701-2.359 1.948-4.483 3.596-6.225 0.477-0.504 1.239-0.615 1.84-0.268l2.035 1.175c0.808-0.615 1.697-1.131 2.646-1.53v-2.351c0-0.696 0.478-1.3 1.155-1.46 2.353-0.557 4.82-0.557 7.173 0 0.677 0.16 1.155 0.765 1.155 1.46v2.351c0.949 0.399 1.838 0.915 2.646 1.53l2.035-1.175c0.601-0.347 1.363-0.237 1.84 0.268 1.648 1.742 2.895 3.865 3.596 6.225 0.197 0.662-0.092 1.373-0.69 1.719l-2.038 1.177c0.064 0.505 0.097 0.994 0.097 1.515s-0.033 1.036-0.097 1.541zM26.076 24.984c1.232-1.381 2.168-2.999 2.746-4.747l-2.896-1.671c0.409-2.215 0.408-2.916 0-5.13l2.896-1.671c-0.578-1.748-1.514-3.367-2.746-4.748l-2.894 1.672c-1.711-1.464-2.316-1.816-4.44-2.567v-3.342c-0.889-0.184-1.789-0.28-2.732-0.28s-1.863 0.096-2.752 0.28v3.342c-2.123 0.75-2.729 1.102-4.44 2.567l-2.894-1.673c-1.232 1.381-2.168 3-2.746 4.748l2.896 1.671c-0.409 2.215-0.408 2.916 0 5.13l-2.896 1.671c0.578 1.748 1.514 3.367 2.746 4.747l2.894-1.671c1.73 1.479 2.339 1.824 4.44 2.566v3.342c0.889 0.183 1.789 0.28 2.732 0.28s1.863-0.096 2.752-0.28v-3.342c2.155-0.761 2.753-1.124 4.44-2.566zM16 10c3.308 0 6 2.692 6 6s-2.692 6-6 6-6-2.692-6-6 2.692-6 6-6zM16 20c2.206 0 4-1.794 4-4s-1.794-4-4-4-4 1.794-4 4 1.794 4 4 4z"></path>
</svg>
