<!-- Generated by IcoMoon.io -->
<svg version="1.1" xmlns="http://www.w3.org/2000/svg" width="31" height="32" viewBox="0 0 31 32">
<path d="M15.5 0.5c8.563 0 15.5 6.938 15.5 15.5s-6.938 15.5-15.5 15.5-15.5-6.938-15.5-15.5 6.938-15.5 15.5-15.5zM23.5 26.85v-0.85c0-2.206-1.794-4-4-4-0.7 0-1.713 0.713-4 0.713-2.281 0-3.306-0.713-4-0.713-2.206 0-4 1.794-4 4v0.85c2.244 1.656 5.006 2.65 8 2.65s5.756-0.994 8-2.65zM25.413 25.131c2.219-2.406 3.588-5.606 3.588-9.131 0-7.444-6.056-13.5-13.5-13.5s-13.5 6.056-13.5 13.5c0 3.525 1.369 6.725 3.588 9.131 0.425-2.9 2.894-5.131 5.912-5.131 1.287 0 1.9 0.713 4 0.713s2.719-0.713 4-0.713c3.019 0 5.488 2.231 5.912 5.131zM15.5 7.5c3.037 0 5.5 2.463 5.5 5.5s-2.463 5.5-5.5 5.5-5.5-2.463-5.5-5.5 2.463-5.5 5.5-5.5zM15.5 16.5c1.931 0 3.5-1.569 3.5-3.5s-1.569-3.5-3.5-3.5-3.5 1.569-3.5 3.5 1.569 3.5 3.5 3.5z"></path>
</svg>
