<!-- Generated by IcoMoon.io -->
<svg version="1.1" xmlns="http://www.w3.org/2000/svg" width="32" height="32" viewBox="0 0 32 32">
<path d="M24 13.444l6.538 2.456c0.881 0.331 1.463 1.169 1.463 2.106v6.663c0 0.85-0.481 1.631-1.244 2.012l-6.162 3.081c-0.631 0.319-1.381 0.319-2.012 0l-6.581-3.288-6.581 3.288c-0.631 0.319-1.381 0.319-2.013 0l-6.162-3.081c-0.762-0.381-1.244-1.163-1.244-2.012v-6.663c0-0.938 0.581-1.781 1.463-2.106l6.531-2.456v-7.037c0-0.938 0.581-1.775 1.462-2.106l5.75-2.156c0.512-0.194 1.075-0.194 1.581 0l5.75 2.156c0.881 0.331 1.463 1.169 1.463 2.106v7.037zM16.75 15.619l5.75-2v-6.1l-5.75 1.981v6.119zM9.5 5.888v0.006l6.5 2.294 6.5-2.287v-0.013l-6.5-2.438zM9.5 7.519v6.1l5.75 2v-6.119zM7.625 28.106v-6.4l-6.050-2.456v5.831zM1.575 17.55l6.837 2.775 6.756-2.744v-0.075l-6.756-2.531-6.837 2.563v0.012zM9.2 21.706v6.406l5.969-2.988v-5.844zM22.8 28.106v-6.394l-5.969-2.425v5.838zM30.425 25.081v-5.831l-6.050 2.456v6.4zM30.425 17.55v-0.012l-6.837-2.563-6.756 2.531v0.075l6.756 2.744z"></path>
</svg>
