<!-- Generated by IcoMoon.io -->
<svg version="1.1" xmlns="http://www.w3.org/2000/svg" width="36" height="32" viewBox="0 0 36 32">
<path d="M35.658 15.125c0.195 0.182 0.315 0.442 0.315 0.729 0 0.552-0.448 1-1 1-0.24 0-0.46-0.085-0.632-0.226l-2.341-2.049v14.421c-0.002 1.655-1.345 2.998-3 3h-22c-1.655-0.002-2.998-1.345-3-3v-14.421l-2.341 2.051c-0.176 0.154-0.407 0.247-0.659 0.247-0.552 0-1-0.448-1-1 0-0.3 0.133-0.57 0.342-0.753l17-14.875c0.176-0.154 0.407-0.247 0.659-0.247s0.482 0.093 0.658 0.247l5.342 4.672v-1.922c0-0.552 0.448-1 1-1h6c0.552 0 1 0.448 1 1v8.922zM30 29v-16.171l-12-10.5-12 10.5v16.171c0 0.552 0.448 1 1 1h22c0.552 0 1-0.448 1-1zM30 10.172v-6.172h-4v2.672zM13 13.667c0.002-0.919 0.748-1.664 1.666-1.667h6.665c0.92 0.002 1.666 0.748 1.669 1.667v6.667c-0.003 0.919-0.75 1.664-1.669 1.666h-6.665c-0.918-0.003-1.663-0.748-1.666-1.666v-6.667zM15 14v6h6v-6h-6z"></path>
</svg>
