<!-- Generated by IcoMoon.io -->
<svg version="1.1" xmlns="http://www.w3.org/2000/svg" width="32" height="32" viewBox="0 0 32 32">
<path d="M28 0c2.206 0 4 1.794 4 4v18c0 2.206-1.794 4-4 4h-9l-7.806 5.85c-0.137 0.106-0.294 0.15-0.444 0.15-0.387 0-0.75-0.306-0.75-0.75v-5.25h-6c-2.206 0-4-1.794-4-4v-18c0-2.206 1.794-4 4-4h24zM30 22v-18c0-1.1-0.9-2-2-2h-24c-1.1 0-2 0.9-2 2v18c0 1.1 0.9 2 2 2h8v4.75l6.331-4.75h9.669c1.1 0 2-0.9 2-2zM17.5 15c0.275 0 0.5 0.225 0.5 0.5v1c0 0.275-0.225 0.5-0.5 0.5h-9c-0.275 0-0.5-0.225-0.5-0.5v-1c0-0.275 0.225-0.5 0.5-0.5h9zM23.5 9c0.275 0 0.5 0.225 0.5 0.5v1c0 0.275-0.225 0.5-0.5 0.5h-15c-0.275 0-0.5-0.225-0.5-0.5v-1c0-0.275 0.225-0.5 0.5-0.5h15z"></path>
</svg>
