<!-- Generated by IcoMoon.io -->
<svg version="1.1" xmlns="http://www.w3.org/2000/svg" width="32" height="32" viewBox="0 0 32 32">
<path d="M11.823 3.672v9.851h-9.851v-9.851h9.851M12.653 1.919h-11.51c-0.507 0-0.923 0.417-0.923 0.923v11.51c0 0.507 0.417 0.923 0.923 0.923h11.514c0.507 0 0.923-0.417 0.923-0.923v-11.51c-0.004-0.507-0.417-0.923-0.927-0.923zM11.823 19.999v9.851h-9.851v-9.851h9.851M12.653 18.245h-11.51c-0.507 0-0.923 0.417-0.923 0.923v11.51c0 0.507 0.417 0.923 0.923 0.923h11.514c0.507 0 0.923-0.417 0.923-0.923v-11.51c-0.004-0.51-0.417-0.923-0.927-0.923zM28.149 19.999v9.851h-9.851v-9.851h9.851M28.979 18.245h-11.51c-0.507 0-0.923 0.417-0.923 0.923v11.51c0 0.507 0.417 0.923 0.923 0.923h11.514c0.507 0 0.923-0.417 0.923-0.923v-11.51c-0.004-0.51-0.417-0.923-0.927-0.923zM22.831 2.141l6.85 6.85-6.85 6.85-6.85-6.85 6.85-6.85M22.831 0.041c-0.234 0-0.468 0.090-0.643 0.265l-8.043 8.043c-0.355 0.355-0.355 0.935 0 1.29l8.043 8.042c0.175 0.175 0.409 0.265 0.643 0.265s0.468-0.090 0.643-0.265l8.043-8.043c0.355-0.355 0.355-0.935 0-1.29l-8.043-8.043c-0.175-0.175-0.409-0.265-0.643-0.265z"></path>
</svg>
