<?xml version="1.0" standalone="no"?><!DOCTYPE svg PUBLIC "-//W3C//DTD SVG 1.1//EN" "http://www.w3.org/Graphics/SVG/1.1/DTD/svg11.dtd"><svg t="1763810646141" class="icon" viewBox="0 0 1024 1024" version="1.1" xmlns="http://www.w3.org/2000/svg" p-id="93596" xmlns:xlink="http://www.w3.org/1999/xlink" width="256" height="256"><path d="M0 921.6a512 102.4 0 1 0 1024 0 512 102.4 0 1 0-1024 0Z" fill="#EFF5FF" p-id="93597"></path><path d="M889.6 230.4l55.424 32-32 55.424-55.424-32z" fill="#EFF5FF" p-id="93598"></path><path d="M70.4 441.6m-32 0a32 32 0 1 0 64 0 32 32 0 1 0-64 0Z" fill="#EFF5FF" p-id="93599"></path><path d="M332.8 0l12.8 76.8 64-51.2z" fill="#EFF5FF" p-id="93600"></path><path d="M256 563.2h512v256H256z" fill="#C0D7F7" p-id="93601"></path><path d="M256 563.2v89.6H128l76.8-53.76V627.2h12.8v-37.12l38.4-26.88zM768 563.2l38.4 26.88V627.2h12.8v-28.16l76.8 53.76H768v-89.6z" fill="#88A7E6" p-id="93602"></path><path d="M217.6 537.6h-12.8v25.6h12.8v-25.6z m601.6-25.6h-12.8v51.2h12.8v-51.2z m-601.6-51.2h-12.8v51.2h12.8v-51.2z m601.6-25.6h-12.8v51.2h12.8v-51.2z m-601.6-51.2h-12.8v51.2h12.8v-51.2z m601.6-25.6h-12.8v51.2h12.8v-51.2z m-601.6-51.2h-12.8v51.2h12.8v-51.2z m601.6-25.6h-12.8v51.2h12.8v-51.2z m-601.6-51.2h-12.8v51.2h12.8v-51.2z m601.6 25.6v-49.4976L819.1744 204.8l-12.7744 0.4224 0.0256 50.7776H819.2z m-595.5328-89.6c-11.4304 8.7936-18.8672 23.04-18.8672 39.1168V217.6h11.4432v-12.0832A36.864 36.864 0 0 1 230.4 176.1792L223.6672 166.4z m543.1936-12.8H755.2v10.6368h11.6608c12.1984 0 23.296 5.7216 29.6704 14.9632l9.8688-5.6576C798.144 161.5616 783.5264 153.6 766.8608 153.6zM281.6 153.6h-31.7056c-2.2656 0-4.5056 0.1408-6.6944 0.4352l1.664 12.3648c1.536-0.2048 3.0976-0.3072 4.672-0.32H281.6V153.6z m76.8 0h-51.2v12.8h51.2v-12.8z m76.8 0h-51.2v12.8h51.2v-12.8z m76.8 0h-51.2v12.8h51.2v-12.8z m76.8 0h-51.2v12.8h51.2v-12.8z m76.8 0h-51.2v12.8h51.2v-12.8z m64 0h-38.4v12.8h38.4v-12.8z" fill="#8DB3FF" p-id="93603"></path><path d="M307.2 268.8h409.6v38.4H307.2zM307.2 371.2h409.6v38.4H307.2zM307.2 473.6h307.2v38.4H307.2zM678.4 742.4l28.416-66.3296A38.4 38.4 0 0 1 742.1312 652.8H896v268.8H128V652.8h141.0816a38.4 38.4 0 0 1 35.2896 23.2704L332.8 742.4h345.6z" fill="#D7E6FF" p-id="93604"></path></svg>